<?xml version="1.0" standalone="no"?>
<!DOCTYPE svg PUBLIC "-//W3C//DTD SVG 20010904//EN"
 "http://www.w3.org/TR/2001/REC-SVG-20010904/DTD/svg10.dtd">
<svg version="1.0" xmlns="http://www.w3.org/2000/svg"
 width="500.000000pt" height="500.000000pt" viewBox="0 0 500.000000 500.000000"
 preserveAspectRatio="xMidYMid meet">
<metadata>
Created by potrace 1.14, written by Peter Selinger 2001-2017
</metadata>
<g transform="translate(0.000000,500.000000) scale(0.100000,-0.100000)"
fill="#000000" stroke="none">
<path d="M1989 4370 c-346 -75 -713 -339 -933 -670 -126 -190 -198 -375 -221
-570 -3 -30 -9 -73 -12 -95 -7 -57 -6 -338 2 -377 6 -27 50 -186 72 -261 3
-10 -1 -25 -9 -35 -26 -29 -41 -65 -53 -122 -13 -63 -12 -91 4 -215 31 -234
85 -417 140 -469 28 -26 35 -28 105 -27 l75 1 39 -57 c22 -32 63 -101 92 -153
188 -341 382 -541 735 -757 237 -145 510 -221 655 -183 147 38 336 129 445
213 6 4 40 29 76 56 159 118 308 272 393 406 74 116 137 270 170 415 6 28 51
49 123 57 23 3 47 11 54 19 6 8 18 60 26 117 26 186 27 219 9 262 -15 34 -15
51 -5 138 14 126 9 200 -18 230 -35 38 -34 44 7 89 23 23 54 69 69 100 27 53
28 63 24 147 -2 50 0 91 5 91 10 0 29 39 43 85 15 49 11 294 -6 430 -8 58 -41
201 -54 230 -5 11 -23 54 -41 95 -98 230 -286 440 -512 573 -299 177 -611 239
-782 156 -52 -25 -57 -24 -108 9 -96 64 -210 90 -392 90 -92 1 -156 -5 -217
-18z"/>
</g>
</svg>
